<svg width="107" height="39" viewBox="0 0 107 39" fill="none" xmlns="http://www.w3.org/2000/svg">
<path d="M13.1066 5.50421C13.0124 4.60025 12.7351 3.91969 12.2747 3.46251C11.8143 2.99495 11.1079 2.76116 10.1557 2.76116H7.91105V14.9179C7.91105 15.4062 7.93198 15.801 7.97384 16.1024C8.0157 16.4037 8.11511 16.6427 8.27207 16.8193C8.42904 16.9855 8.65402 17.0998 8.94702 17.1622C9.25049 17.2141 9.65337 17.2401 10.1557 17.2401V17.6921H3.37475V17.2401C3.87704 17.2401 4.27469 17.2089 4.56769 17.1466C4.86069 17.0842 5.08568 16.97 5.24264 16.8037C5.39961 16.6271 5.49902 16.3881 5.54088 16.0868C5.5932 15.7855 5.61936 15.3958 5.61936 14.9179V2.76116H3.68869C3.1864 2.76116 2.74689 2.80792 2.37018 2.90143C1.99346 2.98455 1.6743 3.13002 1.41269 3.33783C1.16154 3.54563 0.962721 3.82617 0.81622 4.17944C0.680183 4.53272 0.591236 4.97431 0.549379 5.50421H0L0.156965 1.76369H13.4676L13.6246 5.50421H13.1066Z" fill="#333333"/>
<path d="M25.4598 12.1125C25.4598 12.8917 25.3342 13.6398 25.0831 14.3568C24.8424 15.0737 24.4918 15.7075 24.0314 16.2582C23.571 16.7985 23.0111 17.2349 22.3519 17.5674C21.6926 17.8895 20.9496 18.0505 20.123 18.0505C19.3381 18.0505 18.6266 17.8947 17.9882 17.583C17.3604 17.2609 16.8215 16.8401 16.3715 16.3206C15.932 15.801 15.5867 15.2036 15.3355 14.5282C15.0948 13.8529 14.9745 13.1515 14.9745 12.4242C14.9745 11.6657 15.0948 10.9384 15.3355 10.2422C15.5867 9.53566 15.9424 8.91744 16.4029 8.38753C16.8633 7.84723 17.4179 7.41603 18.0667 7.09393C18.7155 6.77183 19.4428 6.61078 20.2485 6.61078C21.0334 6.61078 21.7449 6.75625 22.3833 7.04718C23.032 7.32772 23.5814 7.71735 24.0314 8.21609C24.4918 8.71483 24.8424 9.30188 25.0831 9.97725C25.3342 10.6422 25.4598 11.354 25.4598 12.1125ZM23.2466 13.032C23.2466 12.6891 23.2256 12.3099 23.1838 11.8943C23.1419 11.4787 23.0687 11.063 22.964 10.6474C22.8594 10.2214 22.7233 9.8162 22.5559 9.43176C22.3885 9.03693 22.1792 8.68885 21.9281 8.38753C21.6769 8.07582 21.3787 7.83165 21.0334 7.65501C20.6985 7.46799 20.3061 7.37447 19.8561 7.37447C19.3224 7.37447 18.8829 7.50955 18.5376 7.7797C18.1923 8.03946 17.9202 8.37195 17.7214 8.77717C17.5226 9.172 17.3865 9.6084 17.3133 10.0864C17.24 10.5643 17.2034 11.0163 17.2034 11.4423C17.2034 11.7852 17.2243 12.1644 17.2662 12.58C17.3185 12.9956 17.397 13.4165 17.5016 13.8425C17.6063 14.2685 17.7423 14.6841 17.9097 15.0893C18.0876 15.4841 18.3022 15.8374 18.5533 16.1491C18.8044 16.4608 19.0974 16.7102 19.4323 16.8972C19.7776 17.0842 20.17 17.1778 20.6095 17.1778C21.1746 17.1778 21.6298 17.0479 21.9751 16.7881C22.3205 16.518 22.5873 16.1803 22.7757 15.7751C22.964 15.3594 23.0896 14.9075 23.1524 14.4191C23.2152 13.9308 23.2466 13.4684 23.2466 13.032Z" fill="#333333"/>
<path d="M37.6089 11.9099C37.6089 12.6372 37.5042 13.3697 37.295 14.1074C37.0857 14.8347 36.7717 15.4893 36.3532 16.0712C35.9346 16.653 35.4114 17.131 34.7835 17.5051C34.1661 17.8687 33.4441 18.0505 32.6174 18.0505C32.136 18.0505 31.6756 17.9674 31.2361 17.8012C30.8071 17.6349 30.4146 17.3856 30.0589 17.0531V20.3416C30.0589 20.7365 30.0746 21.0637 30.106 21.3235C30.1373 21.5833 30.2106 21.7911 30.3257 21.9469C30.4513 22.1028 30.6344 22.2171 30.8751 22.2898C31.1262 22.3625 31.4611 22.4041 31.8797 22.4145V22.8665H26.1661V22.4145C26.6056 22.4041 26.9509 22.3625 27.2021 22.2898C27.4532 22.2275 27.6364 22.1184 27.7515 21.9625C27.877 21.8067 27.9555 21.5937 27.9869 21.3235C28.0183 21.0534 28.034 20.7053 28.034 20.2793V10.1019C28.034 9.9253 28.034 9.72789 28.034 9.50969C28.0445 9.29149 28.0235 9.08888 27.9712 8.90185C27.9294 8.70444 27.8456 8.54339 27.7201 8.4187C27.605 8.28363 27.4166 8.21609 27.155 8.21609C26.8725 8.21609 26.6056 8.27843 26.3545 8.40312L26.2289 7.98231L29.6037 6.64195H30.0589V9.16681C30.2472 8.84471 30.4565 8.533 30.6867 8.23168C30.9169 7.91997 31.1733 7.64462 31.4559 7.40564C31.7489 7.16667 32.0628 6.97445 32.3976 6.82898C32.743 6.68352 33.1197 6.61078 33.5278 6.61078C34.2394 6.61078 34.8515 6.77703 35.3643 7.10952C35.877 7.43162 36.2956 7.84723 36.62 8.35636C36.9549 8.86549 37.2008 9.43696 37.3577 10.0708C37.5252 10.6942 37.6089 11.3072 37.6089 11.9099ZM35.7096 13.032C35.7096 12.5333 35.6625 11.9982 35.5683 11.4267C35.4846 10.8448 35.3277 10.3045 35.0974 9.80581C34.8672 9.30708 34.5481 8.89146 34.14 8.55897C33.7423 8.22648 33.2243 8.06024 32.586 8.06024C32.3349 8.06024 32.0889 8.12258 31.8483 8.24726C31.6076 8.37195 31.3774 8.5278 31.1576 8.71483C30.9483 8.89146 30.7495 9.08368 30.5611 9.29149C30.3833 9.4993 30.2158 9.69152 30.0589 9.86816V13.8892C30.0589 14.336 30.085 14.7672 30.1373 15.1828C30.1897 15.588 30.3048 15.9517 30.4827 16.2738C30.6606 16.5855 30.9117 16.8349 31.2361 17.0219C31.571 17.2089 32.0209 17.3024 32.586 17.3024C33.172 17.3024 33.6638 17.1726 34.0615 16.9128C34.4591 16.6427 34.7783 16.2998 35.019 15.8842C35.2596 15.4685 35.4323 15.0114 35.537 14.5126C35.6521 14.0035 35.7096 13.51 35.7096 13.032Z" fill="#333333"/>
<path d="M46.9954 14.9802C46.9954 15.4478 46.8855 15.8686 46.6658 16.2426C46.446 16.6167 46.1635 16.9388 45.8182 17.2089C45.4729 17.4791 45.0804 17.6869 44.6409 17.8324C44.2119 17.9778 43.7829 18.0505 43.3538 18.0505C43.1027 18.0505 42.8411 18.009 42.569 17.9259C42.3074 17.8531 42.051 17.77 41.7999 17.6765C41.5487 17.583 41.308 17.4999 41.0778 17.4271C40.8581 17.344 40.654 17.3024 40.4657 17.3024C40.4238 17.3024 40.3767 17.3284 40.3244 17.3804C40.2825 17.4219 40.2407 17.4739 40.1988 17.5362C40.1674 17.5882 40.136 17.6453 40.1046 17.7077C40.0837 17.77 40.0628 17.8168 40.0419 17.8479H39.6337V14.0139H40.0419C40.1256 14.4399 40.2564 14.8503 40.4343 15.2452C40.6122 15.64 40.8371 15.9933 41.1092 16.305C41.3918 16.6063 41.7162 16.8505 42.0824 17.0375C42.4591 17.2141 42.8829 17.3024 43.3538 17.3024C43.5945 17.3024 43.8247 17.2713 44.0445 17.2089C44.2747 17.1362 44.4735 17.0323 44.6409 16.8972C44.8188 16.7621 44.9601 16.5959 45.0647 16.3985C45.1694 16.2011 45.2217 15.9725 45.2217 15.7127C45.2217 15.214 45.0804 14.7984 44.7979 14.4659C44.5258 14.123 44.1805 13.8217 43.7619 13.5619C43.3434 13.3022 42.8934 13.058 42.412 12.8294C41.9307 12.5904 41.4807 12.3255 41.0621 12.0345C40.6436 11.7332 40.293 11.3851 40.0105 10.9903C39.7384 10.5851 39.6024 10.0864 39.6024 9.4941C39.6024 8.99537 39.7018 8.56936 39.9006 8.21609C40.0994 7.85243 40.361 7.55111 40.6854 7.31213C41.0098 7.07315 41.3813 6.89652 41.7999 6.78222C42.2289 6.66793 42.6632 6.61078 43.1027 6.61078C43.312 6.61078 43.516 6.63156 43.7148 6.67313C43.9137 6.71469 44.1125 6.76664 44.3113 6.82898C44.5101 6.88093 44.7037 6.92769 44.8921 6.96925C45.0909 7.01081 45.2897 7.03159 45.4886 7.03159C45.6141 7.03159 45.7135 6.99003 45.7868 6.90691C45.8705 6.82379 45.9385 6.72508 45.9908 6.61078H46.4146V10.289H45.9908C45.9071 9.90452 45.7868 9.53566 45.6298 9.18239C45.4833 8.81873 45.295 8.49663 45.0647 8.21609C44.8345 7.93555 44.552 7.71216 44.2171 7.54591C43.8927 7.36928 43.5108 7.28096 43.0713 7.28096C42.8411 7.28096 42.6004 7.30174 42.3492 7.3433C42.1086 7.38486 41.8836 7.4576 41.6743 7.5615C41.4755 7.6654 41.308 7.81087 41.172 7.99789C41.0464 8.18492 40.9836 8.42909 40.9836 8.73041C40.9836 9.24993 41.1301 9.67593 41.4232 10.0084C41.7266 10.3305 42.0981 10.6163 42.5376 10.8656C42.9876 11.1046 43.4689 11.3332 43.9817 11.5514C44.5049 11.7696 44.9863 12.0242 45.4258 12.3151C45.8757 12.5956 46.2472 12.9489 46.5402 13.3749C46.8437 13.7905 46.9954 14.3256 46.9954 14.9802Z" fill="#333333"/>
<path d="M58.5952 16.1335C58.4487 16.3309 58.2812 16.5388 58.0929 16.757C57.915 16.9648 57.7162 17.157 57.4964 17.3336C57.2871 17.4999 57.0569 17.6349 56.8058 17.7388C56.5546 17.8531 56.293 17.9103 56.0209 17.9103C55.7698 17.9103 55.5605 17.8583 55.3931 17.7544C55.2361 17.6505 55.1105 17.5154 55.0163 17.3492C54.9222 17.1726 54.8542 16.9803 54.8123 16.7725C54.7809 16.5647 54.7652 16.3517 54.7652 16.1335C54.5036 16.3413 54.242 16.5491 53.9804 16.757C53.7188 16.9648 53.4467 17.157 53.1642 17.3336C52.8816 17.4999 52.5886 17.6349 52.2852 17.7388C51.9817 17.8531 51.6521 17.9103 51.2963 17.9103C50.8882 17.9103 50.5219 17.8375 50.1975 17.6921C49.8836 17.557 49.6167 17.3648 49.397 17.1154C49.1772 16.866 49.0098 16.5751 48.8947 16.2426C48.7796 15.8997 48.722 15.5309 48.722 15.1361C48.722 14.6997 48.8214 14.2996 49.0203 13.936C49.2296 13.5723 49.5016 13.2398 49.8365 12.9385C50.1714 12.6372 50.5533 12.367 50.9823 12.1281C51.4114 11.8787 51.8509 11.6605 52.3008 11.4735C52.7508 11.276 53.1903 11.1046 53.6194 10.9591C54.0484 10.8137 54.4303 10.6838 54.7652 10.5695V10.1331C54.7652 9.76945 54.739 9.42137 54.6867 9.08888C54.6449 8.746 54.5507 8.44468 54.4042 8.18492C54.2577 7.91477 54.0536 7.70177 53.792 7.54591C53.5304 7.39006 53.1799 7.31213 52.7404 7.31213C52.3846 7.31213 52.0968 7.36408 51.877 7.46799C51.6678 7.5615 51.5056 7.70177 51.3904 7.8888C51.2858 8.06543 51.2178 8.27843 51.1864 8.5278C51.155 8.76678 51.1393 9.03173 51.1393 9.32266C51.1393 9.67593 51.0713 9.95128 50.9352 10.1487C50.7992 10.3461 50.5324 10.4448 50.1347 10.4448C49.7685 10.4448 49.5121 10.3409 49.3656 10.1331C49.2191 9.9253 49.1458 9.65515 49.1458 9.32266C49.1458 8.83432 49.2766 8.4187 49.5383 8.07582C49.7999 7.73294 50.1243 7.4524 50.5114 7.2342C50.9091 7.01601 51.3381 6.86015 51.7986 6.76664C52.259 6.66274 52.6933 6.61078 53.1014 6.61078C53.7816 6.61078 54.3519 6.67832 54.8123 6.8134C55.2832 6.93808 55.6599 7.15108 55.9424 7.4524C56.225 7.74333 56.4238 8.12258 56.5389 8.59014C56.6645 9.04732 56.7273 9.61359 56.7273 10.289V13.9516C56.7273 14.2529 56.722 14.5698 56.7116 14.9023C56.7116 15.2348 56.7377 15.5465 56.7901 15.8374C56.8214 15.9829 56.8685 16.1179 56.9313 16.2426C57.0046 16.3569 57.1301 16.4141 57.308 16.4141C57.4022 16.4141 57.5069 16.3777 57.622 16.305C57.7475 16.2218 57.8731 16.1283 57.9987 16.0244C58.1243 15.9205 58.2394 15.8166 58.344 15.7127C58.4591 15.5984 58.5428 15.5153 58.5952 15.4634V16.1335ZM54.7652 11.2397C54.4094 11.3851 53.9961 11.5566 53.5252 11.754C53.0543 11.941 52.6095 12.1696 52.191 12.4398C51.7829 12.6995 51.4323 13.006 51.1393 13.3593C50.8568 13.7126 50.7155 14.123 50.7155 14.5906C50.7155 14.8192 50.7521 15.0529 50.8254 15.2919C50.8986 15.5205 51.0085 15.7283 51.155 15.9153C51.3015 16.1024 51.4794 16.253 51.6887 16.3673C51.898 16.4816 52.1334 16.5388 52.395 16.5388C52.6043 16.5388 52.8136 16.5024 53.0229 16.4297C53.2426 16.3569 53.4519 16.2634 53.6507 16.1491C53.86 16.0244 54.0589 15.8946 54.2472 15.7595C54.4356 15.614 54.6082 15.4789 54.7652 15.3543V11.2397Z" fill="#333333"/>
<path d="M63.3826 3.2599C63.3826 3.59239 63.2675 3.87812 63.0373 4.1171C62.8071 4.35608 62.5245 4.47557 62.1897 4.47557C61.8548 4.47557 61.567 4.36128 61.3264 4.13269C61.0961 3.9041 60.981 3.61317 60.981 3.2599C60.981 2.92741 61.0961 2.65206 61.3264 2.43387C61.567 2.20528 61.8548 2.09099 62.1897 2.09099C62.5141 2.09099 62.7914 2.20528 63.0216 2.43387C63.2623 2.66245 63.3826 2.9378 63.3826 3.2599ZM59.5213 17.6921V17.2401C59.877 17.2401 60.1648 17.2141 60.3846 17.1622C60.6043 17.1102 60.7717 17.0167 60.8869 16.8816C61.0124 16.7466 61.0961 16.5699 61.138 16.3517C61.1799 16.1231 61.2008 15.8374 61.2008 15.4945V9.74347C61.2008 9.6084 61.1903 9.45254 61.1694 9.27591C61.1589 9.08888 61.1275 8.91224 61.0752 8.746C61.0229 8.57975 60.9392 8.43948 60.8241 8.32519C60.709 8.2109 60.5572 8.15375 60.3689 8.15375C60.2328 8.15375 60.0916 8.17453 59.9451 8.21609C59.809 8.24726 59.6678 8.28882 59.5213 8.34078L59.3643 7.91997L62.6449 6.61078H63.1628V15.4945C63.1628 15.8374 63.1838 16.1231 63.2256 16.3517C63.2675 16.5699 63.346 16.7466 63.4611 16.8816C63.5867 17.0167 63.7541 17.1102 63.9634 17.1622C64.1831 17.2141 64.4709 17.2401 64.8267 17.2401V17.6921H59.5213Z" fill="#333333"/>
<path d="M66.2708 17.6921V17.2401C66.6475 17.2401 66.9405 17.1985 67.1498 17.1154C67.3695 17.0219 67.5317 16.892 67.6364 16.7258C67.7515 16.5595 67.8195 16.3569 67.8404 16.1179C67.8718 15.8686 67.8875 15.5828 67.8875 15.2607V5.23926C67.8875 5.05223 67.8927 4.80806 67.9032 4.50674C67.9241 4.20542 67.9137 3.9093 67.8718 3.61837C67.83 3.31705 67.7462 3.06248 67.6207 2.85468C67.4951 2.63648 67.291 2.52738 67.0085 2.52738C66.8829 2.52738 66.7626 2.54297 66.6475 2.57414C66.5324 2.59492 66.4068 2.63128 66.2708 2.68324L66.0824 2.27801L69.3316 1H69.8496V15.2607C69.8496 15.6244 69.8653 15.9309 69.8967 16.1803C69.9385 16.4297 70.017 16.6323 70.1321 16.7881C70.2577 16.944 70.4356 17.0583 70.6658 17.131C70.9065 17.2037 71.2204 17.2401 71.6076 17.2401V17.6921H66.2708Z" fill="#333333"/>
<path d="M25.4767 33.2932C25.4767 33.9166 25.3773 34.4621 25.1785 34.9297C24.9797 35.3868 24.7076 35.7765 24.3623 36.0986C24.017 36.4207 23.6141 36.6856 23.1536 36.8934C22.7037 37.0908 22.2223 37.2467 21.7096 37.361C21.2073 37.4649 20.6893 37.5376 20.1556 37.5792C19.6324 37.6208 19.1249 37.6415 18.633 37.6415H11.083V37.1896C11.5853 37.1896 11.9829 37.1584 12.2759 37.096C12.5794 37.0233 12.8096 36.9038 12.9666 36.7376C13.1236 36.5609 13.2282 36.322 13.2805 36.0206C13.3328 35.7089 13.359 35.3141 13.359 34.8361V24.5185C13.359 24.0198 13.3381 23.6198 13.2962 23.3185C13.2544 23.0067 13.155 22.7626 12.998 22.5859C12.841 22.4093 12.6108 22.2898 12.3073 22.2275C12.0039 22.1651 11.5958 22.134 11.083 22.134V21.7131H17.9895C18.4813 21.7131 18.9888 21.7339 19.512 21.7755C20.0353 21.817 20.548 21.895 21.0503 22.0093C21.5526 22.1132 22.0287 22.2638 22.4787 22.4612C22.9287 22.6587 23.3211 22.9184 23.6559 23.2405C24.0013 23.5522 24.2733 23.9367 24.4722 24.3939C24.671 24.8406 24.7704 25.3705 24.7704 25.9836C24.7704 26.4304 24.6919 26.8408 24.5349 27.2148C24.3884 27.5889 24.1844 27.9266 23.9228 28.2279C23.6612 28.5188 23.3525 28.7734 22.9967 28.9916C22.6409 29.2098 22.2589 29.3812 21.8508 29.5059C22.3845 29.5994 22.8711 29.7449 23.3106 29.9423C23.7501 30.1293 24.1321 30.3787 24.4565 30.6904C24.7809 30.9917 25.032 31.3606 25.2099 31.797C25.3878 32.223 25.4767 32.7217 25.4767 33.2932ZM22.2589 25.8589C22.2589 25.2355 22.1229 24.7108 21.8508 24.2848C21.5892 23.8587 21.2439 23.5159 20.8149 23.2561C20.3963 22.986 19.9202 22.7937 19.3865 22.6794C18.8633 22.5652 18.3348 22.508 17.8011 22.508C17.4349 22.508 17.0686 22.5288 16.7024 22.5703C16.3466 22.6015 15.9908 22.6587 15.635 22.7418V28.8669C16.0117 28.95 16.3884 28.9968 16.7652 29.0072C17.1523 29.0176 17.5291 29.0227 17.8953 29.0227C18.4499 29.0227 18.9888 28.9812 19.512 28.8981C20.0353 28.8045 20.5009 28.6383 20.909 28.3993C21.3171 28.1603 21.6415 27.8382 21.8822 27.433C22.1334 27.0174 22.2589 26.4927 22.2589 25.8589ZM22.7455 33.4646C22.7455 32.7789 22.5938 32.2074 22.2903 31.7502C21.9869 31.2826 21.5945 30.9086 21.1131 30.6281C20.6422 30.3475 20.1085 30.1501 19.512 30.0358C18.9156 29.9111 18.3243 29.8488 17.7383 29.8488C17.4035 29.8488 17.0634 29.854 16.7181 29.8644C16.3727 29.8644 16.0117 29.8903 15.635 29.9423V36.4882C16.0954 36.5921 16.5506 36.6752 17.0006 36.7376C17.4506 36.7895 17.911 36.8155 18.3819 36.8155C18.9156 36.8155 19.4388 36.7584 19.9516 36.6441C20.4748 36.5194 20.9404 36.3272 21.3485 36.0674C21.7671 35.7972 22.102 35.4492 22.3531 35.0232C22.6147 34.5972 22.7455 34.0776 22.7455 33.4646Z" fill="#333333"/>
<path d="M36.8015 33.714C36.7282 34.2751 36.566 34.8154 36.3149 35.3349C36.0637 35.844 35.7446 36.296 35.3574 36.6908C34.9702 37.0857 34.5202 37.4026 34.0075 37.6415C33.5052 37.8805 32.9558 38 32.3593 38C31.585 38 30.8996 37.839 30.3031 37.5169C29.7171 37.1947 29.2253 36.7687 28.8276 36.2388C28.43 35.7089 28.1317 35.1063 27.9329 34.4309C27.7341 33.7555 27.6347 33.0698 27.6347 32.3736C27.6347 31.5944 27.7341 30.8566 27.9329 30.1605C28.1422 29.4539 28.4509 28.8357 28.859 28.3058C29.2776 27.7759 29.8008 27.3551 30.4287 27.0434C31.067 26.7213 31.81 26.5602 32.6576 26.5602C33.3064 26.5602 33.8871 26.6693 34.3999 26.8875C34.9126 27.1057 35.3469 27.4122 35.7027 27.8071C36.0585 28.1915 36.3306 28.6539 36.5189 29.1942C36.7073 29.7241 36.8015 30.306 36.8015 30.9398H29.3142C29.3142 31.5216 29.3927 32.1139 29.5497 32.7165C29.7066 33.3192 29.9473 33.8698 30.2717 34.3686C30.5961 34.8569 31.0042 35.2621 31.496 35.5842C31.9983 35.896 32.5896 36.0518 33.2697 36.0518C33.6883 36.0518 34.0598 35.9895 34.3842 35.8648C34.7191 35.7297 35.0121 35.5479 35.2632 35.3193C35.5248 35.0803 35.7498 34.805 35.9382 34.4933C36.137 34.1712 36.3044 33.8283 36.4404 33.4646L36.8015 33.714ZM34.3214 30.2696C34.3214 29.9059 34.2743 29.5527 34.1801 29.2098C34.0964 28.8669 33.9552 28.5656 33.7563 28.3058C33.568 28.0357 33.3273 27.8175 33.0343 27.6512C32.7413 27.485 32.3907 27.4019 31.9826 27.4019C31.5745 27.4019 31.2135 27.485 30.8996 27.6512C30.5856 27.8071 30.3136 28.0201 30.0833 28.2902C29.8636 28.55 29.6857 28.8565 29.5497 29.2098C29.4241 29.5527 29.3456 29.9059 29.3142 30.2696H34.3214Z" fill="#333333"/>
<path d="M48.5657 36.083C48.4192 36.2804 48.2518 36.4882 48.0634 36.7064C47.8855 36.9142 47.6867 37.1064 47.4669 37.2831C47.2577 37.4493 47.0274 37.5844 46.7763 37.6883C46.5252 37.8026 46.2635 37.8597 45.9915 37.8597C45.7403 37.8597 45.531 37.8078 45.3636 37.7039C45.2066 37.6 45.0811 37.4649 44.9869 37.2987C44.8927 37.122 44.8247 36.9298 44.7828 36.722C44.7514 36.5142 44.7357 36.3012 44.7357 36.083C44.4741 36.2908 44.2125 36.4986 43.9509 36.7064C43.6893 36.9142 43.4172 37.1064 43.1347 37.2831C42.8522 37.4493 42.5592 37.5844 42.2557 37.6883C41.9522 37.8026 41.6226 37.8597 41.2668 37.8597C40.8587 37.8597 40.4925 37.787 40.1681 37.6415C39.8541 37.5065 39.5873 37.3142 39.3675 37.0649C39.1478 36.8155 38.9804 36.5246 38.8652 36.1921C38.7501 35.8492 38.6926 35.4803 38.6926 35.0855C38.6926 34.6491 38.792 34.2491 38.9908 33.8854C39.2001 33.5218 39.4722 33.1893 39.807 32.888C40.1419 32.5866 40.5238 32.3165 40.9529 32.0775C41.3819 31.8281 41.8214 31.6099 42.2714 31.4229C42.7214 31.2255 43.1609 31.0541 43.5899 30.9086C44.0189 30.7631 44.4009 30.6332 44.7357 30.519V30.0826C44.7357 29.7189 44.7096 29.3708 44.6573 29.0383C44.6154 28.6955 44.5212 28.3941 44.3747 28.1344C44.2282 27.8642 44.0242 27.6512 43.7626 27.4954C43.501 27.3395 43.1504 27.2616 42.7109 27.2616C42.3551 27.2616 42.0673 27.3135 41.8476 27.4174C41.6383 27.511 41.4761 27.6512 41.361 27.8382C41.2563 28.0149 41.1883 28.2279 41.1569 28.4773C41.1255 28.7162 41.1098 28.9812 41.1098 29.2721C41.1098 29.6254 41.0418 29.9007 40.9058 30.0981C40.7698 30.2956 40.5029 30.3943 40.1053 30.3943C39.739 30.3943 39.4826 30.2904 39.3361 30.0826C39.1896 29.8748 39.1164 29.6046 39.1164 29.2721C39.1164 28.7838 39.2472 28.3682 39.5088 28.0253C39.7704 27.6824 40.0948 27.4019 40.482 27.1837C40.8796 26.9655 41.3087 26.8096 41.7691 26.7161C42.2295 26.6122 42.6638 26.5602 43.0719 26.5602C43.7521 26.5602 44.3224 26.6278 44.7828 26.7628C45.2537 26.8875 45.6304 27.1005 45.913 27.4019C46.1955 27.6928 46.3943 28.072 46.5095 28.5396C46.635 28.9968 46.6978 29.563 46.6978 30.2384V33.901C46.6978 34.2023 46.6926 34.5192 46.6821 34.8517C46.6821 35.1842 46.7083 35.4959 46.7606 35.7869C46.792 35.9323 46.8391 36.0674 46.9019 36.1921C46.9751 36.3064 47.1007 36.3635 47.2786 36.3635C47.3728 36.3635 47.4774 36.3272 47.5925 36.2544C47.7181 36.1713 47.8437 36.0778 47.9692 35.9739C48.0948 35.87 48.2099 35.7661 48.3146 35.6622C48.4297 35.5479 48.5134 35.4648 48.5657 35.4128V36.083ZM44.7357 31.1891C44.38 31.3346 43.9666 31.506 43.4957 31.7035C43.0248 31.8905 42.5801 32.1191 42.1615 32.3892C41.7534 32.649 41.4029 32.9555 41.1098 33.3088C40.8273 33.662 40.686 34.0725 40.686 34.54C40.686 34.7686 40.7227 35.0024 40.7959 35.2414C40.8692 35.47 40.979 35.6778 41.1255 35.8648C41.272 36.0518 41.4499 36.2025 41.6592 36.3168C41.8685 36.4311 42.104 36.4882 42.3656 36.4882C42.5749 36.4882 42.7841 36.4518 42.9934 36.3791C43.2132 36.3064 43.4225 36.2129 43.6213 36.0986C43.8306 35.9739 44.0294 35.844 44.2178 35.7089C44.4061 35.5635 44.5788 35.4284 44.7357 35.3037V31.1891Z" fill="#333333"/>
<path d="M58.8859 33.5581C58.7917 34.1192 58.619 34.6647 58.3679 35.1946C58.1167 35.7245 57.7923 36.1973 57.3947 36.6129C57.0075 37.0285 56.5575 37.3662 56.0448 37.6259C55.532 37.8753 54.967 38 54.3496 38C53.5647 38 52.8793 37.8338 52.2933 37.5013C51.7178 37.1584 51.2364 36.7168 50.8492 36.1765C50.4725 35.6258 50.19 35.0128 50.0016 34.3374C49.8133 33.6516 49.7191 32.9659 49.7191 32.2801C49.7191 31.532 49.8394 30.8151 50.0801 30.1293C50.3208 29.4332 50.6661 28.8201 51.1161 28.2902C51.566 27.7603 52.1102 27.3395 52.7485 27.0278C53.3868 26.7161 54.1036 26.5602 54.8989 26.5602C55.2652 26.5602 55.6628 26.6174 56.0919 26.7317C56.5209 26.8356 56.9186 26.9966 57.2848 27.2148C57.6511 27.433 57.9598 27.7032 58.2109 28.0253C58.4621 28.3474 58.5876 28.7214 58.5876 29.1474C58.5876 29.5007 58.483 29.7553 58.2737 29.9111C58.0749 30.067 57.808 30.1449 57.4732 30.1449C57.1174 30.1449 56.8558 30.0774 56.6883 29.9423C56.5209 29.7968 56.4006 29.6202 56.3273 29.4124C56.2541 29.2046 56.2018 28.9812 56.1704 28.7422C56.139 28.4928 56.0709 28.2643 55.9663 28.0564C55.8721 27.8486 55.7152 27.6772 55.4954 27.5421C55.2757 27.3967 54.946 27.3239 54.5065 27.3239C53.9833 27.3239 53.5386 27.4486 53.1723 27.698C52.8165 27.937 52.5288 28.2487 52.309 28.6331C52.0893 29.0176 51.9271 29.4436 51.8224 29.9111C51.7282 30.3683 51.6811 30.8151 51.6811 31.2515C51.6811 31.7814 51.7439 32.3321 51.8695 32.9035C51.9951 33.475 52.1991 33.9997 52.4817 34.4777C52.7642 34.9556 53.1252 35.3505 53.5647 35.6622C54.0147 35.9635 54.5536 36.1142 55.1815 36.1142C55.621 36.1142 56.0134 36.0414 56.3587 35.896C56.704 35.7401 57.0075 35.5375 57.2691 35.2881C57.5412 35.0388 57.7766 34.753 57.9755 34.4309C58.1847 34.0984 58.3679 33.7555 58.5248 33.4023L58.8859 33.5581Z" fill="#333333"/>
<path d="M66.6632 37.6415V37.1896C67.019 37.1896 67.3067 37.1636 67.5265 37.1116C67.7567 37.0597 67.9346 36.9714 68.0602 36.8467C68.1962 36.7116 68.2852 36.535 68.327 36.3168C68.3793 36.0882 68.4055 35.7972 68.4055 35.444V31.2203C68.4055 30.8878 68.4003 30.5345 68.3898 30.1605C68.3793 29.7864 68.3218 29.4436 68.2171 29.1318C68.1125 28.8097 67.9398 28.5448 67.6991 28.337C67.4585 28.1188 67.1131 28.0097 66.6632 28.0097C66.3911 28.0097 66.1295 28.0564 65.8783 28.15C65.6272 28.2331 65.3865 28.3474 65.1563 28.4928C64.9261 28.6279 64.7116 28.789 64.5128 28.976C64.3139 29.163 64.1308 29.35 63.9634 29.5371V35.444C63.9634 35.7972 63.9791 36.0882 64.0105 36.3168C64.0523 36.5454 64.136 36.7272 64.2616 36.8623C64.3872 36.9869 64.5598 37.0753 64.7796 37.1272C65.0098 37.1688 65.3133 37.1896 65.69 37.1896V37.6415H60.3218V37.1896C60.6671 37.1896 60.9496 37.1636 61.1694 37.1116C61.3891 37.0493 61.5618 36.9506 61.6874 36.8155C61.8129 36.67 61.8967 36.4882 61.9385 36.27C61.9804 36.0414 62.0013 35.7661 62.0013 35.444V24.0821C62.0013 23.9575 61.9908 23.8016 61.9699 23.6146C61.9594 23.4275 61.9281 23.2509 61.8757 23.0847C61.8234 22.908 61.7449 22.7574 61.6403 22.6327C61.5356 22.508 61.3891 22.4457 61.2008 22.4457C61.0543 22.4457 60.9078 22.4664 60.7613 22.508C60.6148 22.5392 60.4683 22.5807 60.3218 22.6327L60.1334 22.2275L63.414 20.9495H63.9634V28.8045C64.1727 28.4928 64.4029 28.2019 64.654 27.9318C64.9052 27.6512 65.1772 27.4122 65.4702 27.2148C65.7737 27.007 66.0981 26.846 66.4434 26.7317C66.7992 26.6174 67.1707 26.5602 67.5579 26.5602C68.2485 26.5602 68.7822 26.7213 69.1589 27.0434C69.5461 27.3551 69.8286 27.7499 70.0065 28.2279C70.1949 28.7058 70.3048 29.2306 70.3362 29.802C70.378 30.3735 70.399 30.9138 70.399 31.4229V35.444C70.399 35.7661 70.4146 36.0414 70.446 36.27C70.4879 36.4882 70.5664 36.67 70.6815 36.8155C70.7966 36.9506 70.9588 37.0493 71.1681 37.1116C71.3774 37.1636 71.6547 37.1896 72 37.1896V37.6415H66.6632Z" fill="#333333"/>
<path d="M91.2215 1.78765C90.7141 1.78765 90.3071 1.86062 90.0005 2.00655C89.6939 2.15248 89.456 2.43218 89.2869 2.84565C89.1283 3.2348 89.0226 3.78204 88.9697 4.48737C88.9274 5.1927 88.9063 6.10477 88.9063 7.22357V38.6717H88.494L77.7741 8.6464V31.594C77.7741 32.7615 77.7953 33.6978 77.8376 34.4032C77.8904 35.1085 77.9962 35.6558 78.1547 36.0449C78.3133 36.4341 78.5459 36.7016 78.8525 36.8475C79.1591 36.9691 79.5661 37.0299 80.0735 37.0299V38.0879H74.4282V37.0299C74.9356 37.0299 75.3373 36.957 75.6333 36.811C75.9399 36.6651 76.1725 36.3976 76.3311 36.0084C76.4897 35.5949 76.5954 35.0355 76.6482 34.3302C76.7011 33.6249 76.7275 32.7128 76.7275 31.594V5.65482C76.5267 5.02245 76.3364 4.47521 76.1567 4.0131C75.9875 3.52666 75.8025 3.12535 75.6016 2.80917C75.4113 2.46866 75.1893 2.21328 74.9356 2.04303C74.6819 1.87278 74.37 1.78765 74 1.78765V0.802619H77.9644L87.8755 28.7484V7.22357C87.8755 6.10477 87.8491 5.1927 87.7963 4.48737C87.7434 3.78204 87.6324 3.2348 87.4632 2.84565C87.3047 2.43218 87.0721 2.15248 86.7655 2.00655C86.4695 1.86062 86.0678 1.78765 85.5603 1.78765V0.802619H91.2215V1.78765Z" fill="#333333"/>
<path d="M107 29.3321C106.271 32.348 105.351 34.7194 104.241 36.4462C103.141 38.1487 101.83 39 100.308 39C99.1028 39 98.0139 38.5136 97.0413 37.5407C96.0687 36.5678 95.2388 35.2301 94.5517 33.5276C93.8645 31.8251 93.3359 29.8185 92.9659 27.508C92.5959 25.1974 92.4109 22.6922 92.4109 19.9925C92.4109 17.2198 92.6064 14.6296 92.9976 12.2217C93.3993 9.78952 93.9596 7.67353 94.6785 5.87371C95.408 4.04958 96.2749 2.61459 97.2792 1.56876C98.2941 0.522919 99.42 0 100.657 0C101.069 0 101.45 0.0729654 101.799 0.218896C102.158 0.340505 102.502 0.510758 102.829 0.729654C103.168 0.94855 103.501 1.21609 103.828 1.53227C104.156 1.82413 104.5 2.15248 104.859 2.51731C105.018 2.51731 105.155 2.43218 105.272 2.26193C105.388 2.09167 105.483 1.88494 105.557 1.64172C105.631 1.3985 105.689 1.13096 105.731 0.839102C105.784 0.522919 105.827 0.243218 105.858 0H106.286L106.635 12.623H106.286C106.086 11.0664 105.827 9.64359 105.509 8.35454C105.203 7.04116 104.827 5.9102 104.383 4.96165C103.95 4.0131 103.443 3.27128 102.861 2.7362C102.28 2.20112 101.614 1.93358 100.863 1.93358C100.123 1.93358 99.4676 2.18896 98.8967 2.69972C98.3364 3.18616 97.8395 3.86717 97.4061 4.74275C96.9832 5.61834 96.6237 6.63985 96.3277 7.8073C96.0423 8.97474 95.8097 10.2395 95.63 11.6015C95.4608 12.9392 95.334 14.3377 95.2494 15.797C95.1754 17.232 95.1384 18.6548 95.1384 20.0655C95.1384 22.2788 95.2547 24.3826 95.4873 26.377C95.7198 28.3714 96.0793 30.1225 96.5656 31.6305C97.0625 33.1384 97.6915 34.3302 98.4527 35.2058C99.2244 36.0814 100.144 36.5192 101.212 36.5192C101.889 36.5192 102.481 36.3368 102.988 35.9719C103.506 35.6071 103.971 35.0964 104.383 34.4397C104.806 33.7587 105.197 32.9439 105.557 31.9953C105.916 31.0225 106.276 29.9401 106.635 28.7484L107 29.3321Z" fill="#333333"/>
</svg>
